<svg xmlns="http://www.w3.org/2000/svg" viewBox="0 0 512 512">
  <path fill="#fc6" d="M245 425c53 0 82-41 70-83l-5-18v-28l35-36 8 7 29 14v22l36 14 14-14V173c0-9-8-27-22-36l15-21h-98c-45 0-89 17-118 48-36 32-63 45-107 45l-29 7 28 29-43 15 29 29-36 14 29 28 57 8c49 0 108 27 108 86z"/>
  <path fill="#c33" d="M238 432c40 0 58-10 72-29 14-18 18-41 12-63l-5-17v-25l28-28 4 3 26 13v22l44 18 20-20V173c0-9-6-26-19-37l18-27H327c-48 0-94 18-123 50-36 32-62 43-102 43H73v14h29c49 0 78-17 112-46l1-1c26-29 68-46 112-46h84l-11 17 7 3c11 8 18 24 18 30v127l-9 9-27-11v-21l-32-16c-17-11-18-25-18-30 0-7 4-18 11-23l-8-12c-12 9-18 24-18 35 0 6 2 17 11 29l-32 33v31l5 20a57 57 0 0 1-56 74c-4-56-61-87-115-87H80v15h57c49 0 101 25 101 86zm-2-225c23-20 49-45 81-45v-14c-38 0-74 34-91 49-20 18-63 48-125 48H1v15h100c67 0 111-32 135-53zm155-7 10-10 14 14-10 10zm-144 52-11-10c-31 28-72 46-113 46H30v15h93c45 0 91-22 124-51z"/>
</svg>